# xmcd
#
# Track frame offsets:
#	150
#	14075
#	34819
#	50703
#	68749
#	86265
#	103107
#	118553
#	134333
#	147675
#	164769
#	180784
#	197055
#	211637
#	226101
#	245622
#	254136
#	271750
#	286741
#	298292
#	313228
#	325386
#
# Disc length: 4518 seconds
#
# Revision: 1
# Processed by: cddbd v1.5.2PL0 Copyright (c) Steve Scherf et al.
# Submitted via: audiograbber 1.83.01
#
DISCID=5411a416
DTITLE=Various Artist - Bloodshot Records Sampler 12
DYEAR=2012
DGENRE=Alt-Country
TTITLE0=Justin Townes Earle - Nothing's Gonna Change The Way You Feel About Me 
TTITLE0=Now
TTITLE1=Murder By Death - I Came Around
TTITLE2=Firewater - A Little Revolution
TTITLE3=Rosie Flores - Working Girl's Guitar
TTITLE4=Cory Branan - Bad Man
TTITLE5=Waco Brothers and Paul Burch - Great Chicago Fire
TTITLE6=JC Brooks and The Uptown Sound - Sister Ray Charles
TTITLE7=Ha Ha Tonka - Made Example Of
TTITLE8=Dex Romweber Duo - Gurdjieff Girl 
TTITLE9=Scott H. Biram - Born In Jail
TTITLE10=Roger Knox and The Pine Valley Cosmonauts - Land Where The Crow Flies Ba
TTITLE10=ckwards
TTITLE11=Lydia Loveless - Jesus Was A Wino
TTITLE12=Andre Williams - Dirt
TTITLE13=Whitey Morgan And The 78's - Buick City
TTITLE14=Maggie Bjorklund With Rachel Flotard - The Anchor Song
TTITLE15=Wayne Hancock - Driving My Young Life Away
TTITLE16=Alejandro Escovedo - Wedding Day
TTITLE17=Kelly Hogan - No, Bobby Don't
TTITLE18=Graham Parker - See Things My Way
TTITLE19=Old 97's - Over The Cliff
TTITLE20=Water Liars - Rest
TTITLE21=The Black Swans - Bound To Be
EXTD=
EXTT0=
EXTT1=
EXTT2=
EXTT3=
EXTT4=
EXTT5=
EXTT6=
EXTT7=
EXTT8=
EXTT9=
EXTT10=
EXTT11=
EXTT12=
EXTT13=
EXTT14=
EXTT15=
EXTT16=
EXTT17=
EXTT18=
EXTT19=
EXTT20=
EXTT21=
PLAYORDER=
